<?xml version="1.0" standalone="no"?>
<!DOCTYPE svg PUBLIC "-//W3C//DTD SVG 20010904//EN"
 "http://www.w3.org/TR/2001/REC-SVG-20010904/DTD/svg10.dtd">
<svg version="1.0" xmlns="http://www.w3.org/2000/svg"
 width="460.000000pt" height="567.000000pt" viewBox="0 0 460.000000 567.000000"
 preserveAspectRatio="xMidYMid meet">

<g transform="translate(0.000000,567.000000) scale(0.100000,-0.100000)"
fill="#000000" stroke="none">
<path d="M1981 5655 c-230 -52 -410 -232 -441 -441 -38 -253 151 -503 430
-568 146 -35 333 -12 463 56 85 44 195 156 235 239 136 279 -18 588 -348 699
-84 28 -249 36 -339 15z m302 -105 c131 -41 251 -149 296 -267 36 -95 33 -97
-62 -53 -146 68 -221 85 -392 85 -169 0 -244 -16 -383 -80 -41 -19 -79 -35
-85 -35 -14 0 -1 52 29 115 47 101 150 188 274 232 87 30 229 32 323 3z m-105
-305 c43 -17 72 -59 72 -102 0 -110 -184 -143 -236 -42 -29 57 0 122 66 148
35 14 54 13 98 -4z m-454 -151 c141 -36 254 -125 312 -248 59 -122 45 -138
-82 -92 -78 29 -163 84 -205 135 -50 60 -118 221 -94 221 4 0 35 -7 69 -16z
m872 -16 c-14 -69 -65 -159 -123 -215 -64 -63 -173 -119 -249 -130 l-47 -6 7
38 c27 144 172 285 337 329 80 22 83 21 75 -16z"/>
<path d="M2070 5213 c-14 -9 -28 -22 -32 -27 -15 -22 -7 -66 16 -93 50 -57
166 -24 166 48 0 41 -9 58 -41 74 -37 20 -79 19 -109 -2z"/>
<path d="M1385 4893 c-320 -40 -871 -130 -861 -141 3 -2 69 3 148 12 178 20
469 43 650 52 131 6 137 7 142 30 3 12 3 30 0 38 -6 16 -18 17 -79 9z"/>
<path d="M2794 4886 c-3 -8 -4 -25 -2 -38 3 -22 8 -23 113 -30 309 -20 455
-31 610 -49 177 -20 201 -22 194 -15 -8 9 -402 77 -604 105 -312 43 -305 43
-311 27z"/>
<path d="M2983 4625 c-43 -30 -24 -92 34 -109 29 -9 79 17 87 46 15 56 -70
100 -121 63z"/>
<path d="M3537 4614 c-4 -4 -7 -42 -7 -85 0 -43 -4 -80 -9 -83 -5 -3 -28 1
-51 9 -143 51 -260 -44 -260 -212 0 -161 124 -245 271 -182 47 20 51 21 68 5
13 -12 32 -16 62 -14 l44 3 0 280 0 280 -55 3 c-31 2 -59 0 -63 -4z m-32 -269
c22 -21 25 -33 25 -90 0 -60 -3 -69 -29 -96 -38 -37 -88 -39 -128 -5 -26 23
-28 28 -26 97 2 59 7 77 25 96 31 33 100 32 133 -2z"/>
<path d="M1733 4549 c-30 -9 -33 -13 -33 -48 0 -35 -3 -39 -30 -44 -27 -6 -30
-10 -30 -46 0 -36 3 -40 30 -46 l30 -7 0 -107 c0 -96 3 -112 23 -141 34 -51
76 -72 148 -71 71 0 91 13 87 55 -3 28 -7 31 -38 34 -19 1 -47 8 -62 14 l-28
10 0 104 c0 115 -4 110 80 116 32 3 35 6 38 39 3 41 -10 49 -80 49 l-38 0 0
50 c0 50 0 50 -32 49 -18 0 -48 -5 -65 -10z"/>
<path d="M255 4454 c-67 -26 -73 -27 -97 -10 -23 16 -64 21 -92 10 -14 -5 -16
-40 -16 -286 l0 -279 63 3 62 3 3 75 c3 101 3 101 49 84 119 -42 226 10 260
125 31 109 -3 228 -77 266 -45 23 -109 27 -155 9z m79 -105 c24 -19 26 -26 26
-95 0 -66 -3 -78 -25 -99 -28 -29 -71 -32 -115 -10 -36 19 -45 48 -36 123 5
44 12 62 32 80 32 28 83 29 118 1z"/>
<path d="M1321 4443 c-48 -23 -54 -24 -63 -10 -7 13 -23 17 -64 17 l-54 0 2
-197 3 -198 63 -3 62 -3 0 134 c0 157 7 175 78 184 69 9 82 -10 82 -121 0 -50
3 -115 6 -143 l7 -53 58 0 59 0 0 159 c0 148 -1 160 -23 192 -47 71 -128 87
-216 42z"/>
<path d="M2145 4447 c-169 -81 -178 -294 -16 -379 189 -99 413 74 335 260 -49
117 -203 175 -319 119z m164 -102 c18 -18 25 -38 29 -78 9 -117 -73 -177 -149
-109 -27 24 -33 37 -36 83 -9 115 83 176 156 104z"/>
<path d="M2775 4456 c-17 -7 -36 -20 -44 -29 -18 -23 -41 -21 -41 2 0 22 -22
29 -72 23 l-38 -4 0 -199 0 -199 60 0 60 0 0 118 c0 154 17 180 125 192 l50 5
0 50 0 50 -35 2 c-19 2 -49 -3 -65 -11z"/>
<path d="M3879 4442 c-150 -78 -162 -287 -22 -369 40 -23 61 -28 138 -31 58
-2 104 1 130 10 38 12 40 15 40 53 0 44 5 43 -94 27 -82 -14 -170 16 -179 60
-4 23 28 28 176 28 l132 0 0 53 c-1 154 -174 246 -321 169z m173 -92 c45 -46
35 -55 -67 -55 -102 0 -112 9 -67 55 42 41 92 41 134 0z"/>
<path d="M628 4453 l-28 -4 0 -145 c0 -157 8 -191 54 -233 41 -39 130 -42 192
-7 37 20 49 24 56 14 4 -7 8 -16 8 -20 0 -5 25 -8 55 -8 l55 0 0 200 0 199
-34 7 c-19 3 -48 3 -64 -1 l-31 -6 -3 -140 c-3 -160 -8 -169 -84 -169 -69 0
-74 11 -74 169 l0 139 -31 6 c-17 3 -34 5 -38 5 -3 -1 -18 -4 -33 -6z"/>
<path d="M2951 4451 c-10 -6 -12 -20 -7 -47 15 -85 25 -193 25 -272 l1 -83 63
3 62 3 3 196 2 196 -31 7 c-44 9 -102 7 -118 -3z"/>
<path d="M552 3598 l-31 -53 31 -3 c24 -3 38 4 64 29 19 18 34 36 34 39 0 4
-12 13 -27 21 -16 7 -31 15 -34 17 -4 1 -21 -21 -37 -50z"/>
<path d="M785 3521 c-43 -18 -60 -50 -60 -111 0 -73 25 -104 103 -126 40 -12
52 -20 50 -32 -5 -25 -44 -26 -84 -3 -41 24 -47 23 -64 -19 -17 -40 -9 -54 42
-79 63 -30 110 -28 150 8 30 27 33 34 33 90 0 53 -4 64 -28 88 -15 16 -49 35
-75 43 -28 9 -47 21 -47 30 0 21 42 25 70 6 34 -22 39 -21 58 20 20 42 15 53
-37 78 -37 17 -79 20 -111 7z"/>
<path d="M1192 3510 c-21 -13 -42 -40 -57 -73 -42 -88 -30 -190 30 -255 l33
-37 101 -3 101 -4 0 51 c0 38 -4 51 -14 51 -13 0 -13 4 0 28 21 41 17 110 -11
169 -27 58 -71 93 -120 93 -16 0 -45 -9 -63 -20z m102 -99 c40 -44 25 -150
-24 -166 -46 -14 -87 46 -77 111 11 68 64 96 101 55z"/>
<path d="M60 3330 l0 -190 40 0 40 0 1 98 1 97 36 -77 c19 -43 38 -78 42 -78
4 0 23 35 42 78 l36 77 1 -97 1 -98 40 0 40 0 0 190 0 190 -38 0 c-38 0 -38
-1 -77 -80 -21 -44 -42 -80 -45 -80 -3 0 -24 36 -45 80 -39 79 -39 80 -77 80
l-38 0 0 -190z"/>
<path d="M515 3508 c-16 -46 -115 -357 -115 -362 0 -3 20 -6 45 -6 39 0 45 3
51 25 6 23 11 25 60 25 49 0 54 -2 60 -25 5 -22 12 -25 50 -25 24 0 44 3 44 8
0 4 -26 88 -58 187 l-58 180 -37 3 c-24 2 -39 -1 -42 -10z m65 -215 c0 -7 -12
-13 -26 -13 -20 0 -25 4 -20 16 3 9 9 28 13 42 l6 27 13 -30 c7 -16 13 -36 14
-42z"/>
<path d="M1440 3383 c0 -158 15 -210 69 -237 64 -34 131 -10 162 57 15 35 19
66 19 180 l0 137 -40 0 -40 0 0 -128 c0 -112 -2 -131 -18 -145 -24 -22 -35
-21 -55 1 -14 15 -17 41 -17 145 l0 127 -40 0 -40 0 0 -137z"/>
<path d="M1740 3330 l0 -190 110 0 110 0 0 50 0 50 -70 0 c-63 0 -70 2 -70 20
0 18 7 20 60 20 l60 0 0 50 0 50 -60 0 c-53 0 -60 2 -60 20 0 18 7 20 70 20
l70 0 0 50 0 50 -110 0 -110 0 0 -190z"/>
<path d="M2140 3383 c0 -158 15 -210 69 -237 64 -34 131 -10 162 57 15 35 19
66 19 180 l0 137 -40 0 -40 0 0 -128 c0 -112 -2 -131 -18 -145 -24 -22 -35
-21 -55 1 -14 15 -17 41 -17 145 l0 127 -40 0 -40 0 0 -137z"/>
<path d="M2440 3330 l0 -190 40 0 39 0 3 103 3 102 54 -102 54 -103 39 0 38 0
0 190 0 190 -40 0 -39 0 -3 -102 -3 -103 -53 103 -54 102 -39 0 -39 0 0 -190z"/>
<path d="M2890 3470 l0 -50 35 0 35 0 0 -140 0 -140 40 0 40 0 0 140 0 140 35
0 35 0 0 50 0 50 -110 0 -110 0 0 -50z"/>
<path d="M3195 3508 c-16 -46 -115 -357 -115 -362 0 -3 20 -6 45 -6 39 0 45 3
51 25 6 23 11 25 60 25 49 0 54 -2 60 -25 6 -24 9 -25 93 -25 l88 0 23 50 c13
28 27 50 32 50 4 0 19 -22 33 -50 25 -49 26 -50 70 -50 25 0 45 3 45 6 0 3
-22 44 -50 91 -27 47 -50 87 -50 90 0 3 23 45 50 93 28 48 50 90 50 94 0 3
-20 6 -45 6 -44 0 -45 0 -73 -57 l-29 -56 -29 54 c-28 53 -30 54 -76 57 -27 2
-48 1 -48 -2 0 -2 23 -42 50 -89 28 -47 50 -91 50 -98 0 -16 -81 -159 -90
-159 -3 0 -30 78 -61 173 l-54 172 -38 3 c-24 2 -39 -1 -42 -10z m64 -220 c1
-5 -11 -8 -25 -8 -20 0 -25 4 -20 16 3 9 9 28 13 42 l6 27 13 -35 c7 -19 13
-38 13 -42z"/>
<path d="M3700 3330 l0 -190 40 0 40 0 0 190 0 190 -40 0 -40 0 0 -190z"/>
<path d="M3832 3228 c-15 -15 -16 -64 -2 -73 8 -5 8 -11 0 -20 -6 -7 -7 -21
-2 -34 l8 -22 27 21 c31 24 45 80 28 116 -11 26 -39 32 -59 12z"/>
<path d="M3294 2900 c-32 -13 -82 -76 -93 -117 -24 -86 -7 -167 47 -225 65
-68 147 -62 203 15 37 51 36 60 -3 79 -31 14 -33 14 -56 -14 -36 -42 -82 -37
-107 13 -52 99 40 211 107 131 23 -28 25 -28 56 -14 39 19 39 27 7 75 -40 58
-103 81 -161 57z"/>
<path d="M60 2763 c0 -158 15 -210 69 -237 64 -34 131 -10 162 57 15 35 19 66
19 180 l0 137 -40 0 -40 0 0 -128 c0 -112 -2 -131 -18 -145 -24 -22 -35 -21
-55 1 -14 15 -17 41 -17 145 l0 127 -40 0 -40 0 0 -137z"/>
<path d="M360 2710 l0 -190 40 0 39 0 3 103 3 102 54 -102 54 -103 39 0 38 0
0 190 0 190 -40 0 -39 0 -3 -102 -3 -103 -53 103 -54 102 -39 0 -39 0 0 -190z"/>
<path d="M775 2888 c-16 -46 -115 -357 -115 -362 0 -3 20 -6 45 -6 39 0 45 3
51 25 6 23 11 25 60 25 49 0 54 -2 60 -25 5 -22 12 -25 50 -25 24 0 44 3 44 8
0 4 -26 88 -58 187 l-58 180 -37 3 c-24 2 -39 -1 -42 -10z m64 -220 c1 -5 -11
-8 -25 -8 -20 0 -25 4 -20 16 3 9 9 28 13 42 l6 27 13 -35 c7 -19 13 -38 13
-42z"/>
<path d="M1120 2710 l0 -190 110 0 110 0 0 50 0 50 -70 0 c-63 0 -70 2 -70 20
0 18 7 20 60 20 l60 0 0 50 0 50 -60 0 c-53 0 -60 2 -60 20 0 18 7 20 70 20
l70 0 0 50 0 50 -110 0 -110 0 0 -190z"/>
<path d="M1360 2896 c0 -2 23 -42 50 -89 28 -47 50 -91 50 -99 0 -7 -20 -48
-45 -90 -25 -43 -45 -82 -45 -88 0 -5 19 -10 43 -10 42 0 44 1 67 50 13 28 27
50 32 50 4 0 19 -22 33 -50 25 -49 26 -50 70 -50 25 0 45 3 45 6 0 3 -22 44
-50 91 -27 47 -50 87 -50 90 0 3 23 45 50 93 28 48 50 90 50 94 0 3 -20 6 -45
6 -44 0 -45 0 -73 -57 l-29 -56 -29 54 c-28 53 -30 54 -76 57 -27 2 -48 1 -48
-2z"/>
<path d="M1680 2710 l0 -190 40 0 40 0 0 50 0 50 35 0 c98 0 154 102 111 204
-24 59 -58 76 -147 76 l-79 0 0 -190z m150 75 c7 -8 10 -25 6 -40 -5 -21 -12
-25 -41 -25 -34 0 -35 1 -35 40 0 37 2 40 29 40 16 0 34 -7 41 -15z"/>
<path d="M1940 2710 l0 -190 110 0 110 0 0 50 0 50 -70 0 c-63 0 -70 2 -70 20
0 18 7 20 60 20 l60 0 0 50 0 50 -60 0 c-53 0 -60 2 -60 20 0 18 7 20 70 20
l70 0 0 50 0 50 -110 0 -110 0 0 -190z"/>
<path d="M2200 2710 l0 -190 40 0 40 0 0 55 c0 72 17 72 55 0 30 -55 30 -55
78 -55 26 0 47 2 47 4 0 3 -15 31 -34 62 l-35 57 21 27 c42 58 32 169 -19 210
-21 16 -41 20 -109 20 l-84 0 0 -190z m155 70 c12 -38 -3 -60 -41 -60 -33 0
-34 1 -34 40 0 39 1 40 34 40 26 0 36 -5 41 -20z"/>
<path d="M2480 2710 l0 -190 40 0 40 0 0 190 0 190 -40 0 -40 0 0 -190z"/>
<path d="M2610 2710 l0 -190 110 0 110 0 0 50 0 50 -70 0 c-63 0 -70 2 -70 20
0 18 7 20 60 20 l60 0 0 50 0 50 -60 0 c-53 0 -60 2 -60 20 0 18 7 20 70 20
l70 0 0 50 0 50 -110 0 -110 0 0 -190z"/>
<path d="M2870 2710 l0 -190 40 0 39 0 3 103 3 102 54 -102 54 -103 39 0 38 0
0 190 0 190 -40 0 -39 0 -3 -102 -3 -103 -53 103 -54 102 -39 0 -39 0 0 -190z"/>
<path d="M3500 2710 l0 -190 40 0 40 0 0 190 0 190 -40 0 -40 0 0 -190z"/>
<path d="M3715 2888 c-16 -46 -115 -357 -115 -362 0 -3 20 -6 45 -6 39 0 45 3
51 25 6 23 11 25 60 25 49 0 54 -2 60 -25 5 -22 12 -25 50 -25 24 0 44 3 44 8
0 4 -26 88 -58 187 l-58 180 -37 3 c-24 2 -39 -1 -42 -10z m64 -220 c1 -5 -11
-8 -25 -8 -20 0 -25 4 -20 16 3 9 9 28 13 42 l6 27 13 -35 c7 -19 13 -38 13
-42z"/>
<path d="M4070 2710 l0 -190 73 0 c125 0 177 50 185 177 4 53 0 72 -22 117
-33 68 -67 86 -165 86 l-71 0 0 -190z m156 76 c15 -12 19 -27 19 -76 0 -69
-16 -90 -67 -90 l-28 0 0 90 0 90 28 0 c16 0 37 -6 48 -14z"/>
<path d="M4360 2710 l0 -190 110 0 110 0 0 50 0 50 -70 0 c-63 0 -70 2 -70 20
0 18 7 20 60 20 l60 0 0 50 0 50 -60 0 c-53 0 -60 2 -60 20 0 18 7 20 70 20
l70 0 0 50 0 50 -110 0 -110 0 0 -190z"/>
<path d="M52 2258 c-7 -7 -12 -20 -12 -31 0 -27 169 -408 193 -434 17 -19 31
-23 78 -23 74 0 74 1 169 216 l75 169 3 -179 c1 -108 7 -185 13 -192 8 -10 52
-13 166 -13 l154 0 17 29 c16 27 22 30 73 30 50 0 57 -3 77 -30 22 -29 26 -30
96 -30 50 0 77 4 85 14 10 11 17 11 48 -5 98 -50 224 -1 268 103 19 48 22 357
3 376 -7 7 -40 12 -78 12 -38 0 -71 -5 -78 -12 -8 -8 -12 -59 -12 -164 0 -93
-4 -155 -10 -159 -6 -4 -24 5 -41 19 -37 31 -40 31 -81 6 -18 -11 -38 -20 -44
-20 -6 0 -39 66 -73 148 -35 81 -70 155 -79 165 -22 24 -132 24 -155 -1 -9 -9
-50 -96 -91 -192 l-75 -175 -1 181 c0 136 -3 184 -13 192 -8 7 -69 11 -157 11
-114 0 -148 -3 -161 -15 -9 -8 -34 -55 -55 -104 -21 -50 -41 -90 -45 -90 -4 0
-23 39 -44 88 -51 119 -54 122 -135 122 -38 0 -71 -5 -78 -12z m196 -150 c30
-71 58 -128 61 -128 3 0 31 57 61 128 l56 127 62 3 c46 2 62 0 62 -10 -1 -7
-42 -105 -93 -218 l-92 -205 -51 -3 c-33 -2 -54 2 -61 10 -14 17 -183 403
-183 418 0 7 21 10 61 8 l62 -3 55 -127z m462 -88 l0 -220 -60 0 -60 0 0 220
0 220 60 0 60 0 0 -220z m421 10 c49 -113 88 -211 89 -217 0 -9 -19 -13 -65
-13 -62 0 -65 1 -80 30 -15 29 -17 30 -91 30 -73 0 -75 -1 -92 -30 -16 -28
-21 -30 -79 -30 -45 0 -63 4 -63 13 0 11 162 395 176 419 3 5 31 8 61 6 l56
-3 88 -205z m409 52 c0 -144 -2 -162 -22 -202 -39 -77 -131 -110 -211 -76 -34
14 -87 69 -87 89 0 7 18 22 40 33 l39 22 26 -24 c30 -28 57 -31 79 -8 13 13
16 43 16 170 l0 154 60 0 60 0 0 -158z"/>
<path d="M966 2026 c-22 -53 -21 -56 20 -56 32 0 35 2 28 23 -3 12 -12 33 -19
47 l-13 24 -16 -38z"/>
<path d="M1592 2258 c-17 -17 -17 -459 0 -476 8 -8 63 -12 182 -12 144 0 172
3 188 17 17 15 19 15 36 0 22 -20 131 -24 150 -5 15 15 16 134 2 143 -6 3 -8
16 -5 28 3 12 9 81 14 152 10 161 8 165 -89 165 -48 0 -71 -4 -80 -15 -12 -14
-15 -14 -30 0 -13 12 -48 15 -186 15 -119 0 -174 -4 -182 -12z m353 -73 l0
-50 -107 -3 -108 -3 0 -29 0 -30 95 0 95 0 0 -55 0 -55 -95 0 c-94 0 -95 0
-95 -25 0 -24 1 -24 108 -27 l107 -3 0 -50 0 -50 -167 -3 -168 -2 0 220 0 220
168 -2 167 -3 0 -50z m186 -30 c-2 -44 -6 -107 -9 -140 l-7 -60 -39 -3 c-21
-2 -42 0 -46 5 -5 4 -11 70 -15 146 l-7 138 62 -3 63 -3 -2 -80z m-142 -135
c1 -37 6 -71 11 -76 8 -8 6 -15 -5 -24 -13 -11 -19 -11 -32 3 -12 12 -16 33
-14 85 1 42 -2 73 -9 77 -6 4 -2 13 12 25 23 18 23 18 30 -3 3 -12 6 -51 7
-87z m141 -165 l0 -56 -57 3 -58 3 -3 39 c-5 60 1 66 63 66 l55 0 0 -55z"/>
<path d="M140 1230 c-69 -17 -70 -19 -70 -332 0 -181 4 -286 11 -300 27 -50
-24 -48 1494 -48 1030 0 1422 3 1438 11 12 6 32 21 45 32 22 20 22 23 22 302
l0 282 -23 21 c-13 13 -39 27 -58 32 -42 12 -2808 12 -2859 0z m940 -115 c23
-12 30 -22 30 -45 0 -23 -7 -33 -30 -45 -55 -28 -90 -11 -90 45 0 56 35 73 90
45z m140 5 c0 -5 -14 -10 -31 -10 -35 0 -36 -23 -1 -28 29 -4 28 -20 0 -24
-32 -4 -27 -22 8 -29 24 -5 26 -7 11 -14 -9 -4 -28 -4 -42 -1 -22 6 -25 12
-25 55 0 26 3 51 7 54 10 11 73 8 73 -3z m107 -6 c2 -7 -6 -10 -22 -7 -33 7
-32 -12 2 -29 37 -17 41 -45 10 -59 -26 -12 -67 2 -67 22 0 6 8 6 21 -1 29
-16 56 -5 39 15 -7 8 -18 15 -25 15 -7 0 -19 7 -26 16 -11 14 -10 18 6 30 22
16 56 15 62 -2z m137 10 c23 -9 20 -23 -4 -17 -11 3 -31 2 -45 -1 -20 -5 -25
-13 -25 -36 0 -23 5 -31 24 -36 14 -3 34 -3 45 1 12 4 21 2 21 -4 0 -16 -43
-23 -72 -12 -35 13 -52 45 -38 71 18 34 57 48 94 34z m267 -4 c21 -12 26 -46
7 -53 -10 -3 -10 -9 0 -26 10 -18 10 -21 -3 -21 -9 0 -18 7 -21 15 -4 8 -12
15 -20 15 -8 0 -14 -7 -14 -15 0 -8 -4 -15 -10 -15 -11 0 -14 93 -3 103 10 10
42 8 64 -3z m149 0 c11 -7 4 -10 -27 -10 -31 0 -45 -5 -53 -19 -21 -41 26 -75
73 -53 l22 10 -25 10 -25 9 23 7 c43 14 58 -21 20 -48 -32 -22 -62 -20 -94 7
-21 18 -26 29 -21 49 10 38 72 61 107 38z m275 -4 c17 -13 18 -17 6 -40 -11
-21 -12 -28 -1 -41 10 -12 10 -15 -4 -15 -9 0 -19 7 -22 15 -8 20 -34 19 -34
-1 0 -9 -6 -14 -12 -12 -18 6 -23 89 -6 99 20 13 52 11 73 -5z m165 5 c0 -5
-12 -11 -27 -13 -32 -3 -34 -21 -3 -26 26 -4 26 -22 0 -22 -11 0 -20 -7 -20
-15 0 -9 9 -15 25 -15 14 0 25 -4 25 -10 0 -11 -39 -13 -64 -4 -20 8 -23 100
-3 107 21 9 67 7 67 -2z m-711 -47 c22 -46 21 -68 -1 -46 -7 7 -24 12 -38 12
-14 0 -31 -5 -38 -12 -22 -22 -23 0 0 46 29 60 49 60 77 0z m419 0 c23 -46 22
-68 0 -46 -7 7 -24 12 -38 12 -14 0 -31 -5 -38 -12 -22 -22 -23 0 0 46 12 26
29 46 38 46 9 0 26 -20 38 -46z m382 16 c12 -16 25 -30 30 -30 5 0 7 14 4 30
-5 23 -3 30 10 30 13 0 16 -11 16 -50 0 -62 -16 -65 -59 -13 l-31 38 0 -38 c0
-20 -4 -37 -10 -37 -5 0 -10 23 -10 50 0 59 17 66 50 20z m-1978 -9 c147 -67
185 -83 225 -97 78 -27 128 -58 131 -82 5 -32 -9 -45 -83 -77 l-65 -27 -65 51
c-35 28 -68 51 -72 51 -5 0 -23 14 -42 30 -18 17 -36 30 -40 30 -3 0 -23 16
-45 35 -21 19 -42 35 -47 35 -5 0 -9 -65 -9 -145 0 -90 -4 -145 -10 -145 -16
0 -13 357 3 363 27 12 59 6 119 -22z m779 -151 c36 -20 10 -30 -59 -24 -59 5
-70 4 -94 -16 -22 -17 -28 -30 -28 -61 0 -34 5 -42 33 -59 49 -30 125 -23 149
14 15 21 8 26 -37 26 -33 0 -45 4 -45 15 0 12 14 15 70 15 69 0 70 0 70 -26 0
-38 -59 -94 -101 -96 -123 -5 -189 37 -189 121 0 82 142 138 231 91z m747
-103 l3 -107 -26 0 -25 0 0 103 c0 107 3 120 30 115 12 -3 16 -23 18 -111z
m442 98 c74 -38 27 -125 -69 -125 l-41 0 0 -40 c0 -36 -2 -40 -25 -40 l-25 0
0 103 c0 57 3 107 7 110 12 13 124 7 153 -8z m100 -95 c0 -103 -1 -110 -20
-110 -19 0 -20 7 -20 110 0 103 1 110 20 110 19 0 20 -7 20 -110z m-1053 14
c31 -20 38 -56 18 -88 -31 -46 -119 -53 -160 -11 -75 74 46 159 142 99z m179
16 c24 0 54 -39 54 -70 0 -46 -31 -70 -90 -70 -80 0 -122 54 -85 108 16 22 70
43 93 36 8 -2 20 -4 28 -4z m253 -6 c2 -2 3 -41 2 -86 -1 -70 -5 -86 -22 -100
-27 -23 -97 -23 -128 -2 -33 23 -12 41 28 24 36 -14 81 -6 81 15 0 10 -10 14
-32 13 -49 -2 -75 10 -99 43 l-21 30 26 34 c14 18 36 35 48 37 24 4 110 -2
117 -8z m249 -11 c33 -21 23 -34 -41 -56 -69 -23 -66 -42 4 -33 51 7 73 -6 40
-23 -22 -12 -90 -15 -116 -5 -8 4 -23 20 -31 36 -20 39 -2 79 46 95 38 13 62
9 98 -14z m545 -1 c12 -11 17 -30 17 -67 l0 -52 -67 -1 c-49 -1 -72 3 -85 15
-23 21 -23 28 2 53 13 13 33 20 60 20 23 0 40 5 40 11 0 8 -15 10 -44 7 -50
-6 -74 3 -54 19 31 26 99 23 131 -5z m87 -22 c11 -22 24 -40 29 -40 4 0 16 18
26 40 14 31 24 40 43 40 29 0 30 3 -36 -115 -37 -66 -56 -91 -72 -93 -19 -3
-21 0 -15 15 29 69 29 66 -4 121 -36 62 -38 72 -11 72 13 0 27 -14 40 -40z"/>
<path d="M1020 1075 c0 -40 17 -52 49 -35 39 20 20 70 -26 70 -20 0 -23 -5
-23 -35z"/>
<path d="M1682 1093 c2 -12 11 -17 23 -15 25 5 29 8 20 21 -11 19 -47 13 -43
-6z"/>
<path d="M2100 1095 c0 -8 9 -15 20 -15 11 0 20 7 20 15 0 8 -9 15 -20 15 -11
0 -20 -7 -20 -15z"/>
<path d="M1560 1075 c0 -9 5 -15 11 -13 6 2 11 8 11 13 0 5 -5 11 -11 13 -6 2
-11 -4 -11 -13z"/>
<path d="M1980 1075 c0 -8 5 -15 10 -15 6 0 10 7 10 15 0 8 -4 15 -10 15 -5 0
-10 -7 -10 -15z"/>
<path d="M2297 903 c-4 -3 -7 -21 -7 -40 0 -28 3 -33 24 -33 42 0 76 18 76 40
0 28 -72 54 -93 33z"/>
<path d="M1342 818 c-30 -30 -3 -72 44 -66 34 4 53 31 38 56 -13 21 -64 28
-82 10z"/>
<path d="M1552 818 c-30 -30 -3 -72 44 -66 34 4 53 31 38 56 -13 21 -64 28
-82 10z"/>
<path d="M1763 824 c-7 -3 -13 -19 -13 -35 0 -22 6 -30 24 -35 14 -3 34 -3 46
1 17 5 20 13 18 38 -3 28 -7 32 -33 34 -16 1 -36 0 -42 -3z"/>
<path d="M2029 813 c-13 -15 -11 -16 16 -9 41 10 56 26 23 26 -14 0 -32 -7
-39 -17z"/>
<path d="M2585 776 c-18 -13 -18 -15 -3 -21 25 -10 53 -2 53 15 0 20 -26 24
-50 6z"/>
</g>
</svg>
